<svg width="128" height="128" viewBox="0 0 128 128" fill="none" xmlns="http://www.w3.org/2000/svg">
<rect width="128" height="128" fill="#00B4D8"/>
<g clip-path="url(#clip0_2905_2)">
<path fill-rule="evenodd" clip-rule="evenodd" d="M62.2331 66.0229L69.4716 57.153C71.1185 55.045 70.3396 53.3245 69.2585 48.7636C68.4641 45.3885 69.088 41.5794 71.475 39.0761C78.2989 31.9306 92.1791 18 92.1791 18L94.0081 19.4338L79.6977 37.7548L82.759 40.1456L97.7552 22.3594L99.6114 23.8048L85.8241 42.5404L88.8854 44.9351L103.94 27.1876L105.656 28.5322L91.9466 47.326L95.0117 49.7169L109.322 31.3959L111 32.7056C111 32.7056 101.119 49.6006 95.8952 58.0287C94.0391 61.0164 90.3734 62.5276 86.851 62.5509C82.1584 62.578 80.3216 62.206 78.6476 64.3489L69.8087 75.1795C79.2831 86.6572 87.4749 96.6121 91.4041 101.642C94.3917 105.466 91.656 111.023 86.7619 111.023C85.1344 111.023 83.4565 110.361 82.2397 108.803L49.8447 69.7739C49.8447 69.7739 46.2565 72.56 42.3117 75.6561C30.0202 55.5681 18.0271 30.4697 18.0271 21.5805C18.0271 21.0845 17.8954 18 20.8636 18C21.813 18 22.774 18.4495 23.4754 19.333C25.4477 21.8208 44.4585 44.5709 62.2331 66.0229M50.7941 80.0388L58.362 89.2031L42.4164 108.791C41.2732 110.256 39.5644 111.023 37.8361 111.023C33.1939 111.023 30.121 105.59 33.2287 101.615L50.7941 80.0388V80.0388Z" fill="white"/>
</g>
<defs>
<clipPath id="clip0_2905_2">
<rect width="93" height="93" fill="white" transform="translate(18 18)"/>
</clipPath>
</defs>
</svg>
